<?xml version="1.0" encoding="UTF-8" standalone="no"?>
<!DOCTYPE svg PUBLIC "-//W3C//DTD SVG 1.1//EN"
 "http://www.w3.org/Graphics/SVG/1.1/DTD/svg11.dtd">
<!-- Generated by graphviz version 2.47.2 (20210527.0053)
 -->
<!-- Title: classes Pages: 1 -->
<svg width="1951pt" height="260pt"
 viewBox="0.00 0.00 1950.50 260.00" xmlns="http://www.w3.org/2000/svg" xmlns:xlink="http://www.w3.org/1999/xlink">
<g id="graph0" class="graph" transform="scale(1 1) rotate(0) translate(4 256)">
<title>classes</title>
<polygon fill="white" stroke="transparent" points="-4,4 -4,-256 1946.5,-256 1946.5,4 -4,4"/>
<!-- 0 -->
<g id="node1" class="node">
<title>0</title>
<polygon fill="none" stroke="black" points="0,-23.5 0,-122.5 203,-122.5 203,-23.5 0,-23.5"/>
<text text-anchor="middle" x="101.5" y="-107.3" font-family="Times,serif" font-size="14.00">CodeTagConfig</text>
<polyline fill="none" stroke="black" points="0,-99.5 203,-99.5 "/>
<text text-anchor="start" x="8" y="-84.3" font-family="Times,serif" font-size="14.00">code_tag_summary_filename : str</text>
<text text-anchor="start" x="8" y="-69.3" font-family="Times,serif" font-size="14.00">doc_sub_dir : Path</text>
<text text-anchor="start" x="8" y="-54.3" font-family="Times,serif" font-size="14.00">re_raw : str</text>
<polyline fill="none" stroke="black" points="0,-46.5 203,-46.5 "/>
<text text-anchor="start" x="8" y="-31.3" font-family="Times,serif" font-size="14.00">compile_issue_regex()</text>
</g>
<!-- 9 -->
<g id="node10" class="node">
<title>9</title>
<polygon fill="none" stroke="black" points="420,-182.5 420,-251.5 515,-251.5 515,-182.5 420,-182.5"/>
<text text-anchor="middle" x="467.5" y="-236.3" font-family="Times,serif" font-size="14.00">_PathAttrBase</text>
<polyline fill="none" stroke="black" points="420,-228.5 515,-228.5 "/>
<text text-anchor="start" x="428" y="-213.3" font-family="Times,serif" font-size="14.00">path_project</text>
<polyline fill="none" stroke="black" points="420,-205.5 515,-205.5 "/>
<text text-anchor="middle" x="467.5" y="-190.3" font-family="Times,serif" font-size="14.00"> </text>
</g>
<!-- 0&#45;&gt;9 -->
<g id="edge1" class="edge">
<title>0&#45;&gt;9</title>
<path fill="none" stroke="black" d="M169.21,-122.56C183.1,-131.17 197.93,-139.47 212.5,-146 277.43,-175.13 357.22,-194.64 410.07,-205.51"/>
<polygon fill="none" stroke="black" points="409.45,-208.96 419.94,-207.51 410.83,-202.1 409.45,-208.96"/>
</g>
<!-- 1 -->
<g id="node2" class="node">
<title>1</title>
<polygon fill="none" stroke="black" points="221.5,-31 221.5,-115 391.5,-115 391.5,-31 221.5,-31"/>
<text text-anchor="middle" x="306.5" y="-99.8" font-family="Times,serif" font-size="14.00">DocConfig</text>
<polyline fill="none" stroke="black" points="221.5,-92 391.5,-92 "/>
<text text-anchor="start" x="229.5" y="-76.8" font-family="Times,serif" font-size="14.00">doc_sub_dir : Path</text>
<text text-anchor="start" x="229.5" y="-61.8" font-family="Times,serif" font-size="14.00">handler_lookup : NoneType</text>
<polyline fill="none" stroke="black" points="221.5,-54 391.5,-54 "/>
<text text-anchor="middle" x="306.5" y="-38.8" font-family="Times,serif" font-size="14.00"> </text>
</g>
<!-- 1&#45;&gt;9 -->
<g id="edge2" class="edge">
<title>1&#45;&gt;9</title>
<path fill="none" stroke="black" d="M353.07,-115.07C374.66,-134.11 400.23,-156.67 421.72,-175.62"/>
<polygon fill="none" stroke="black" points="419.62,-178.44 429.44,-182.43 424.25,-173.19 419.62,-178.44"/>
</g>
<!-- 2 -->
<g id="node3" class="node">
<title>2</title>
<polygon fill="none" stroke="black" points="793,-38 793,-108 876,-108 876,-38 793,-38"/>
<text text-anchor="middle" x="834.5" y="-92.8" font-family="Times,serif" font-size="14.00">DoitGlobals</text>
<polyline fill="none" stroke="black" points="793,-85 876,-85 "/>
<polyline fill="none" stroke="black" points="793,-61 876,-61 "/>
<text text-anchor="start" x="801" y="-45.8" font-family="Times,serif" font-size="14.00">set_paths()</text>
</g>
<!-- 3 -->
<g id="node4" class="node">
<title>3</title>
<polygon fill="none" stroke="black" points="410,-16 410,-130 525,-130 525,-16 410,-16"/>
<text text-anchor="middle" x="467.5" y="-114.8" font-family="Times,serif" font-size="14.00">LintConfig</text>
<polyline fill="none" stroke="black" points="410,-107 525,-107 "/>
<text text-anchor="start" x="418" y="-91.8" font-family="Times,serif" font-size="14.00">path_flake8</text>
<text text-anchor="start" x="418" y="-76.8" font-family="Times,serif" font-size="14.00">path_flake8 : Path</text>
<text text-anchor="start" x="418" y="-61.8" font-family="Times,serif" font-size="14.00">path_isort</text>
<text text-anchor="start" x="418" y="-46.8" font-family="Times,serif" font-size="14.00">path_isort : Path</text>
<polyline fill="none" stroke="black" points="410,-39 525,-39 "/>
<text text-anchor="middle" x="467.5" y="-23.8" font-family="Times,serif" font-size="14.00"> </text>
</g>
<!-- 3&#45;&gt;9 -->
<g id="edge3" class="edge">
<title>3&#45;&gt;9</title>
<path fill="none" stroke="black" d="M467.5,-130.12C467.5,-144.07 467.5,-158.82 467.5,-172.08"/>
<polygon fill="none" stroke="black" points="464,-172.36 467.5,-182.36 471,-172.36 464,-172.36"/>
</g>
<!-- 4 -->
<g id="node5" class="node">
<title>4</title>
<polygon fill="none" stroke="black" points="543,-38.5 543,-107.5 650,-107.5 650,-38.5 543,-38.5"/>
<text text-anchor="middle" x="596.5" y="-92.3" font-family="Times,serif" font-size="14.00">PackageMeta</text>
<polyline fill="none" stroke="black" points="543,-84.5 650,-84.5 "/>
<text text-anchor="start" x="551" y="-69.3" font-family="Times,serif" font-size="14.00">path_toml : Path</text>
<polyline fill="none" stroke="black" points="543,-61.5 650,-61.5 "/>
<text text-anchor="middle" x="596.5" y="-46.3" font-family="Times,serif" font-size="14.00"> </text>
</g>
<!-- 4&#45;&gt;9 -->
<g id="edge4" class="edge">
<title>4&#45;&gt;9</title>
<path fill="none" stroke="black" d="M568.15,-107.66C557.71,-119.86 545.7,-133.67 534.5,-146 525.93,-155.43 516.57,-165.41 507.63,-174.79"/>
<polygon fill="none" stroke="black" points="504.97,-172.52 500.58,-182.16 510.02,-177.36 504.97,-172.52"/>
</g>
<!-- 5 -->
<g id="node6" class="node">
<title>5</title>
<polygon fill="none" stroke="black" points="894,-0.5 894,-145.5 1079,-145.5 1079,-0.5 894,-0.5"/>
<text text-anchor="middle" x="986.5" y="-130.3" font-family="Times,serif" font-size="14.00">SummaryReporter</text>
<polyline fill="none" stroke="black" points="894,-122.5 1079,-122.5 "/>
<polyline fill="none" stroke="black" points="894,-98.5 1079,-98.5 "/>
<text text-anchor="start" x="902" y="-83.3" font-family="Times,serif" font-size="14.00">add_failure(task, exception)</text>
<text text-anchor="start" x="902" y="-68.3" font-family="Times,serif" font-size="14.00">add_success(task)</text>
<text text-anchor="start" x="902" y="-53.3" font-family="Times,serif" font-size="14.00">complete_run()</text>
<text text-anchor="start" x="902" y="-38.3" font-family="Times,serif" font-size="14.00">initialize(tasks, selected_tasks)</text>
<text text-anchor="start" x="902" y="-23.3" font-family="Times,serif" font-size="14.00">skip_ignore(task)</text>
<text text-anchor="start" x="902" y="-8.3" font-family="Times,serif" font-size="14.00">skip_uptodate(task)</text>
</g>
<!-- 6 -->
<g id="node7" class="node">
<title>6</title>
<polygon fill="none" stroke="black" points="668.5,-1 668.5,-145 774.5,-145 774.5,-1 668.5,-1"/>
<text text-anchor="middle" x="721.5" y="-129.8" font-family="Times,serif" font-size="14.00">TestingConfig</text>
<polyline fill="none" stroke="black" points="668.5,-122 774.5,-122 "/>
<text text-anchor="start" x="676.5" y="-106.8" font-family="Times,serif" font-size="14.00">args_diff : str</text>
<text text-anchor="start" x="676.5" y="-91.8" font-family="Times,serif" font-size="14.00">args_pytest : str</text>
<text text-anchor="start" x="676.5" y="-76.8" font-family="Times,serif" font-size="14.00">path_out</text>
<text text-anchor="start" x="676.5" y="-61.8" font-family="Times,serif" font-size="14.00">path_out : Path</text>
<text text-anchor="start" x="676.5" y="-46.8" font-family="Times,serif" font-size="14.00">path_tests</text>
<text text-anchor="start" x="676.5" y="-31.8" font-family="Times,serif" font-size="14.00">path_tests : Path</text>
<polyline fill="none" stroke="black" points="668.5,-24 774.5,-24 "/>
<text text-anchor="middle" x="721.5" y="-8.8" font-family="Times,serif" font-size="14.00"> </text>
</g>
<!-- 6&#45;&gt;9 -->
<g id="edge5" class="edge">
<title>6&#45;&gt;9</title>
<path fill="none" stroke="black" d="M668.28,-139.32C665.42,-141.7 662.49,-143.94 659.5,-146 618.74,-174.17 565.3,-192.44 525.16,-203.23"/>
<polygon fill="none" stroke="black" points="524.05,-199.9 515.26,-205.81 525.81,-206.67 524.05,-199.9"/>
</g>
<!-- 7 -->
<g id="node8" class="node">
<title>7</title>
<polygon fill="none" stroke="black" points="1097,-23.5 1097,-122.5 1170,-122.5 1170,-23.5 1097,-23.5"/>
<text text-anchor="middle" x="1133.5" y="-107.3" font-family="Times,serif" font-size="14.00">_CodeTag</text>
<polyline fill="none" stroke="black" points="1097,-99.5 1170,-99.5 "/>
<text text-anchor="start" x="1105" y="-84.3" font-family="Times,serif" font-size="14.00">lineno</text>
<text text-anchor="start" x="1105" y="-69.3" font-family="Times,serif" font-size="14.00">tag</text>
<text text-anchor="start" x="1105" y="-54.3" font-family="Times,serif" font-size="14.00">text</text>
<polyline fill="none" stroke="black" points="1097,-46.5 1170,-46.5 "/>
<text text-anchor="middle" x="1133.5" y="-31.3" font-family="Times,serif" font-size="14.00"> </text>
</g>
<!-- 8 -->
<g id="node9" class="node">
<title>8</title>
<polygon fill="none" stroke="black" points="1188,-1 1188,-145 1355,-145 1355,-1 1188,-1"/>
<text text-anchor="middle" x="1271.5" y="-129.8" font-family="Times,serif" font-size="14.00">_HostedPythonPackage</text>
<polyline fill="none" stroke="black" points="1188,-122 1355,-122 "/>
<text text-anchor="start" x="1196" y="-106.8" font-family="Times,serif" font-size="14.00">datetime : NoneType</text>
<text text-anchor="start" x="1196" y="-91.8" font-family="Times,serif" font-size="14.00">domain : str</text>
<text text-anchor="start" x="1196" y="-76.8" font-family="Times,serif" font-size="14.00">latest_datetime : NoneType</text>
<text text-anchor="start" x="1196" y="-61.8" font-family="Times,serif" font-size="14.00">latest_version : str</text>
<text text-anchor="start" x="1196" y="-46.8" font-family="Times,serif" font-size="14.00">name</text>
<text text-anchor="start" x="1196" y="-31.8" font-family="Times,serif" font-size="14.00">version</text>
<polyline fill="none" stroke="black" points="1188,-24 1355,-24 "/>
<text text-anchor="middle" x="1271.5" y="-8.8" font-family="Times,serif" font-size="14.00"> </text>
</g>
<!-- 10 -->
<g id="node11" class="node">
<title>10</title>
<polygon fill="none" stroke="black" points="1373,-31 1373,-115 1600,-115 1600,-31 1373,-31"/>
<text text-anchor="middle" x="1486.5" y="-99.8" font-family="Times,serif" font-size="14.00">_ReplacementMachine</text>
<polyline fill="none" stroke="black" points="1373,-92 1600,-92 "/>
<text text-anchor="start" x="1381" y="-76.8" font-family="Times,serif" font-size="14.00">state_auto : str</text>
<text text-anchor="start" x="1381" y="-61.8" font-family="Times,serif" font-size="14.00">state_user : str</text>
<polyline fill="none" stroke="black" points="1373,-54 1600,-54 "/>
<text text-anchor="start" x="1381" y="-38.8" font-family="Times,serif" font-size="14.00">parse(lines, handler_lookup, path_file)</text>
</g>
<!-- 11 -->
<g id="node12" class="node">
<title>11</title>
<polygon fill="none" stroke="black" points="1618.5,-31 1618.5,-115 1700.5,-115 1700.5,-31 1618.5,-31"/>
<text text-anchor="middle" x="1659.5" y="-99.8" font-family="Times,serif" font-size="14.00">_Tags</text>
<polyline fill="none" stroke="black" points="1618.5,-92 1700.5,-92 "/>
<text text-anchor="start" x="1626.5" y="-76.8" font-family="Times,serif" font-size="14.00">code_tags</text>
<text text-anchor="start" x="1626.5" y="-61.8" font-family="Times,serif" font-size="14.00">path_source</text>
<polyline fill="none" stroke="black" points="1618.5,-54 1700.5,-54 "/>
<text text-anchor="middle" x="1659.5" y="-38.8" font-family="Times,serif" font-size="14.00"> </text>
</g>
<!-- 12 -->
<g id="node13" class="node">
<title>12</title>
<polygon fill="none" stroke="black" points="1719,-38 1719,-108 1820,-108 1820,-38 1719,-38"/>
<text text-anchor="middle" x="1769.5" y="-92.8" font-family="Times,serif" font-size="14.00">_TaskExitCode</text>
<polyline fill="none" stroke="black" points="1719,-85 1820,-85 "/>
<polyline fill="none" stroke="black" points="1719,-61 1820,-61 "/>
<text text-anchor="middle" x="1769.5" y="-45.8" font-family="Times,serif" font-size="14.00"> </text>
</g>
<!-- 13 -->
<g id="node14" class="node">
<title>13</title>
<polygon fill="none" stroke="black" points="1838.5,-31 1838.5,-115 1942.5,-115 1942.5,-31 1838.5,-31"/>
<text text-anchor="middle" x="1890.5" y="-99.8" font-family="Times,serif" font-size="14.00">_TaskSummary</text>
<polyline fill="none" stroke="black" points="1838.5,-92 1942.5,-92 "/>
<text text-anchor="start" x="1846.5" y="-76.8" font-family="Times,serif" font-size="14.00">exit_code</text>
<text text-anchor="start" x="1846.5" y="-61.8" font-family="Times,serif" font-size="14.00">name</text>
<polyline fill="none" stroke="black" points="1838.5,-54 1942.5,-54 "/>
<text text-anchor="middle" x="1890.5" y="-38.8" font-family="Times,serif" font-size="14.00"> </text>
</g>
</g>
</svg>
