<?xml version="1.0" encoding="UTF-8" standalone="no"?>
<!DOCTYPE svg PUBLIC "-//W3C//DTD SVG 1.1//EN"
 "http://www.w3.org/Graphics/SVG/1.1/DTD/svg11.dtd">
<!-- Generated by graphviz version 2.47.2 (20210527.0053)
 -->
<!-- Title: packages Pages: 1 -->
<svg width="1157pt" height="332pt"
 viewBox="0.00 0.00 1157.00 332.00" xmlns="http://www.w3.org/2000/svg" xmlns:xlink="http://www.w3.org/1999/xlink">
<g id="graph0" class="graph" transform="scale(1 1) rotate(0) translate(4 328)">
<title>packages</title>
<polygon fill="white" stroke="transparent" points="-4,4 -4,-328 1153,-328 1153,4 -4,4"/>
<!-- 0 -->
<g id="node1" class="node">
<title>0</title>
<polygon fill="none" stroke="black" points="61,-36 5,-36 5,0 61,0 61,-36"/>
<text text-anchor="middle" x="33" y="-14.3" font-family="Times,serif" font-size="14.00">calcipy</text>
</g>
<!-- 1 -->
<g id="node2" class="node">
<title>1</title>
<polygon fill="none" stroke="black" points="157,-36 79,-36 79,0 157,0 157,-36"/>
<text text-anchor="middle" x="118" y="-14.3" font-family="Times,serif" font-size="14.00">calcipy.dev</text>
</g>
<!-- 2 -->
<g id="node3" class="node">
<title>2</title>
<polygon fill="none" stroke="black" points="299,-36 175,-36 175,0 299,0 299,-36"/>
<text text-anchor="middle" x="237" y="-14.3" font-family="Times,serif" font-size="14.00">calcipy.dev.conftest</text>
</g>
<!-- 3 -->
<g id="node4" class="node">
<title>3</title>
<polygon fill="none" stroke="black" points="436.5,-36 317.5,-36 317.5,0 436.5,0 436.5,-36"/>
<text text-anchor="middle" x="377" y="-14.3" font-family="Times,serif" font-size="14.00">calcipy.dev.noxfile</text>
</g>
<!-- 4 -->
<g id="node5" class="node">
<title>4</title>
<polygon fill="none" stroke="black" points="567.5,-36 454.5,-36 454.5,0 567.5,0 567.5,-36"/>
<text text-anchor="middle" x="511" y="-14.3" font-family="Times,serif" font-size="14.00">calcipy.doit_tasks</text>
</g>
<!-- 5 -->
<g id="node6" class="node">
<title>5</title>
<polygon fill="none" stroke="black" points="578.5,-180 437.5,-180 437.5,-144 578.5,-144 578.5,-180"/>
<text text-anchor="middle" x="508" y="-158.3" font-family="Times,serif" font-size="14.00">calcipy.doit_tasks.base</text>
</g>
<!-- 4&#45;&gt;5 -->
<g id="edge1" class="edge">
<title>4&#45;&gt;5</title>
<path fill="none" stroke="black" d="M510.64,-36.13C510.13,-60.33 509.19,-104.79 508.58,-133.61"/>
<polygon fill="black" stroke="black" points="508.36,-143.81 504.08,-133.72 508.47,-138.81 508.57,-133.81 508.57,-133.81 508.57,-133.81 508.47,-138.81 513.07,-133.91 508.36,-143.81 508.36,-143.81"/>
</g>
<!-- 6 -->
<g id="node7" class="node">
<title>6</title>
<polygon fill="none" stroke="black" points="913,-108 693,-108 693,-72 913,-72 913,-108"/>
<text text-anchor="middle" x="803" y="-86.3" font-family="Times,serif" font-size="14.00">calcipy.doit_tasks.code_tag_collector</text>
</g>
<!-- 4&#45;&gt;6 -->
<g id="edge2" class="edge">
<title>4&#45;&gt;6</title>
<path fill="none" stroke="black" d="M567.51,-33.64C570.72,-34.45 573.9,-35.24 577,-36 623.83,-47.52 676.27,-59.85 718.84,-69.72"/>
<polygon fill="black" stroke="black" points="728.6,-71.98 717.84,-74.11 723.73,-70.85 718.85,-69.72 718.85,-69.72 718.85,-69.72 723.73,-70.85 719.87,-65.34 728.6,-71.98 728.6,-71.98"/>
</g>
<!-- 7 -->
<g id="node8" class="node">
<title>7</title>
<polygon fill="none" stroke="black" points="482.5,-108 345.5,-108 345.5,-72 482.5,-72 482.5,-108"/>
<text text-anchor="middle" x="414" y="-86.3" font-family="Times,serif" font-size="14.00">calcipy.doit_tasks.doc</text>
</g>
<!-- 4&#45;&gt;7 -->
<g id="edge3" class="edge">
<title>4&#45;&gt;7</title>
<path fill="none" stroke="black" d="M487.02,-36.3C474.69,-45.2 459.48,-56.18 446.15,-65.8"/>
<polygon fill="black" stroke="black" points="437.7,-71.9 443.18,-62.39 441.76,-68.97 445.81,-66.04 445.81,-66.04 445.81,-66.04 441.76,-68.97 448.44,-69.69 437.7,-71.9 437.7,-71.9"/>
</g>
<!-- 10 -->
<g id="node11" class="node">
<title>10</title>
<polygon fill="none" stroke="black" points="674.5,-108 539.5,-108 539.5,-72 674.5,-72 674.5,-108"/>
<text text-anchor="middle" x="607" y="-86.3" font-family="Times,serif" font-size="14.00">calcipy.doit_tasks.lint</text>
</g>
<!-- 4&#45;&gt;10 -->
<g id="edge4" class="edge">
<title>4&#45;&gt;10</title>
<path fill="none" stroke="black" d="M534.73,-36.3C546.94,-45.2 561.99,-56.18 575.18,-65.8"/>
<polygon fill="black" stroke="black" points="583.54,-71.9 572.81,-69.64 579.5,-68.95 575.46,-66 575.46,-66 575.46,-66 579.5,-68.95 578.11,-62.37 583.54,-71.9 583.54,-71.9"/>
</g>
<!-- 11 -->
<g id="node12" class="node">
<title>11</title>
<polygon fill="none" stroke="black" points="327.5,-108 154.5,-108 154.5,-72 327.5,-72 327.5,-108"/>
<text text-anchor="middle" x="241" y="-86.3" font-family="Times,serif" font-size="14.00">calcipy.doit_tasks.packaging</text>
</g>
<!-- 4&#45;&gt;11 -->
<g id="edge5" class="edge">
<title>4&#45;&gt;11</title>
<path fill="none" stroke="black" d="M454.4,-33.67C414.43,-44.04 360.44,-58.03 316.76,-69.36"/>
<polygon fill="black" stroke="black" points="307.04,-71.88 315.59,-65.01 311.88,-70.62 316.72,-69.37 316.72,-69.37 316.72,-69.37 311.88,-70.62 317.85,-73.72 307.04,-71.88 307.04,-71.88"/>
</g>
<!-- 12 -->
<g id="node13" class="node">
<title>12</title>
<polygon fill="none" stroke="black" points="1149,-108 931,-108 931,-72 1149,-72 1149,-108"/>
<text text-anchor="middle" x="1040" y="-86.3" font-family="Times,serif" font-size="14.00">calcipy.doit_tasks.summary_reporter</text>
</g>
<!-- 4&#45;&gt;12 -->
<g id="edge6" class="edge">
<title>4&#45;&gt;12</title>
<path fill="none" stroke="black" d="M567.76,-34.19C570.88,-34.85 573.97,-35.46 577,-36 725.47,-62.72 767.23,-53.43 920.47,-71.85"/>
<polygon fill="black" stroke="black" points="930.73,-73.1 920.26,-76.36 925.77,-72.5 920.8,-71.89 920.8,-71.89 920.8,-71.89 925.77,-72.5 921.35,-67.42 930.73,-73.1 930.73,-73.1"/>
</g>
<!-- 13 -->
<g id="node14" class="node">
<title>13</title>
<polygon fill="none" stroke="black" points="136,-108 0,-108 0,-72 136,-72 136,-108"/>
<text text-anchor="middle" x="68" y="-86.3" font-family="Times,serif" font-size="14.00">calcipy.doit_tasks.test</text>
</g>
<!-- 4&#45;&gt;13 -->
<g id="edge7" class="edge">
<title>4&#45;&gt;13</title>
<path fill="none" stroke="black" d="M454.23,-34.13C451.11,-34.8 448.02,-35.43 445,-36 316.24,-60.2 279.19,-50.03 146.51,-71.84"/>
<polygon fill="black" stroke="black" points="136.37,-73.54 145.48,-67.45 141.3,-72.72 146.23,-71.89 146.23,-71.89 146.23,-71.89 141.3,-72.72 146.97,-76.33 136.37,-73.54 136.37,-73.54"/>
</g>
<!-- 8 -->
<g id="node9" class="node">
<title>8</title>
<polygon fill="none" stroke="black" points="550,-252 366,-252 366,-216 550,-216 550,-252"/>
<text text-anchor="middle" x="458" y="-230.3" font-family="Times,serif" font-size="14.00">calcipy.doit_tasks.doit_globals</text>
</g>
<!-- 5&#45;&gt;8 -->
<g id="edge8" class="edge">
<title>5&#45;&gt;8</title>
<path fill="none" stroke="black" d="M495.64,-180.3C489.77,-188.53 482.63,-198.52 476.16,-207.58"/>
<polygon fill="black" stroke="black" points="470.22,-215.9 472.37,-205.14 473.12,-211.83 476.03,-207.76 476.03,-207.76 476.03,-207.76 473.12,-211.83 479.69,-210.37 470.22,-215.9 470.22,-215.9"/>
</g>
<!-- 15 -->
<g id="node16" class="node">
<title>15</title>
<polygon fill="none" stroke="black" points="742,-252 620,-252 620,-216 742,-216 742,-252"/>
<text text-anchor="middle" x="681" y="-230.3" font-family="Times,serif" font-size="14.00">calcipy.file_helpers</text>
</g>
<!-- 5&#45;&gt;15 -->
<g id="edge9" class="edge">
<title>5&#45;&gt;15</title>
<path fill="none" stroke="black" d="M550.32,-180.12C574.18,-189.78 604.17,-201.91 629.4,-212.12"/>
<polygon fill="black" stroke="black" points="638.82,-215.93 627.86,-216.35 634.18,-214.06 629.55,-212.18 629.55,-212.18 629.55,-212.18 634.18,-214.06 631.23,-208.01 638.82,-215.93 638.82,-215.93"/>
</g>
<!-- 6&#45;&gt;5 -->
<g id="edge10" class="edge">
<title>6&#45;&gt;5</title>
<path fill="none" stroke="black" d="M731.21,-108.03C688.08,-118.27 633.11,-131.31 588.51,-141.9"/>
<polygon fill="black" stroke="black" points="578.58,-144.25 587.27,-137.57 583.44,-143.1 588.31,-141.94 588.31,-141.94 588.31,-141.94 583.44,-143.1 589.35,-146.32 578.58,-144.25 578.58,-144.25"/>
</g>
<!-- 6&#45;&gt;8 -->
<g id="edge11" class="edge">
<title>6&#45;&gt;8</title>
<path fill="none" stroke="black" d="M749.98,-108.07C723.54,-117.37 691.43,-129.85 664,-144 638.36,-157.22 635.82,-167.15 610,-180 583.93,-192.97 553.9,-204.17 527.45,-212.88"/>
<polygon fill="black" stroke="black" points="517.88,-215.98 526.01,-208.62 522.64,-214.44 527.4,-212.9 527.4,-212.9 527.4,-212.9 522.64,-214.44 528.78,-217.18 517.88,-215.98 517.88,-215.98"/>
</g>
<!-- 7&#45;&gt;5 -->
<g id="edge12" class="edge">
<title>7&#45;&gt;5</title>
<path fill="none" stroke="black" d="M437.24,-108.3C449.19,-117.2 463.92,-128.18 476.85,-137.8"/>
<polygon fill="black" stroke="black" points="485.03,-143.9 474.32,-141.53 481.02,-140.91 477.01,-137.92 477.01,-137.92 477.01,-137.92 481.02,-140.91 479.7,-134.31 485.03,-143.9 485.03,-143.9"/>
</g>
<!-- 7&#45;&gt;8 -->
<g id="edge13" class="edge">
<title>7&#45;&gt;8</title>
<path fill="none" stroke="black" d="M414.88,-108.17C416.22,-126.43 419.6,-155.93 428,-180 431.19,-189.14 435.93,-198.52 440.71,-206.8"/>
<polygon fill="black" stroke="black" points="446.04,-215.61 437.02,-209.38 443.45,-211.33 440.87,-207.05 440.87,-207.05 440.87,-207.05 443.45,-211.33 444.72,-204.73 446.04,-215.61 446.04,-215.61"/>
</g>
<!-- 9 -->
<g id="node10" class="node">
<title>9</title>
<polygon fill="none" stroke="black" points="546,-324 370,-324 370,-288 546,-288 546,-324"/>
<text text-anchor="middle" x="458" y="-302.3" font-family="Times,serif" font-size="14.00">calcipy.doit_tasks.file_search</text>
</g>
<!-- 8&#45;&gt;9 -->
<g id="edge14" class="edge">
<title>8&#45;&gt;9</title>
<path fill="none" stroke="black" d="M458,-252.3C458,-260.02 458,-269.29 458,-277.89"/>
<polygon fill="black" stroke="black" points="458,-287.9 453.5,-277.9 458,-282.9 458,-277.9 458,-277.9 458,-277.9 458,-282.9 462.5,-277.9 458,-287.9 458,-287.9"/>
</g>
<!-- 10&#45;&gt;5 -->
<g id="edge15" class="edge">
<title>10&#45;&gt;5</title>
<path fill="none" stroke="black" d="M582.78,-108.12C570.08,-117.11 554.34,-128.24 540.58,-137.97"/>
<polygon fill="black" stroke="black" points="532.31,-143.81 537.88,-134.36 536.39,-140.92 540.48,-138.04 540.48,-138.04 540.48,-138.04 536.39,-140.92 543.07,-141.71 532.31,-143.81 532.31,-143.81"/>
</g>
<!-- 10&#45;&gt;8 -->
<g id="edge16" class="edge">
<title>10&#45;&gt;8</title>
<path fill="none" stroke="black" d="M607.85,-108.1C607.9,-127.68 605.04,-159.65 588,-180 576.25,-194.03 560.21,-204.39 543.4,-212.03"/>
<polygon fill="black" stroke="black" points="534.01,-216 541.47,-207.96 538.62,-214.05 543.22,-212.11 543.22,-212.11 543.22,-212.11 538.62,-214.05 544.97,-216.25 534.01,-216 534.01,-216"/>
</g>
<!-- 11&#45;&gt;5 -->
<g id="edge17" class="edge">
<title>11&#45;&gt;5</title>
<path fill="none" stroke="black" d="M305.97,-108.03C344.33,-118.09 393.05,-130.86 433.03,-141.35"/>
<polygon fill="black" stroke="black" points="442.73,-143.89 431.92,-145.71 437.9,-142.62 433.06,-141.35 433.06,-141.35 433.06,-141.35 437.9,-142.62 434.2,-137 442.73,-143.89 442.73,-143.89"/>
</g>
<!-- 11&#45;&gt;8 -->
<g id="edge18" class="edge">
<title>11&#45;&gt;8</title>
<path fill="none" stroke="black" d="M267.18,-108.13C306.2,-133.66 379.68,-181.75 423.19,-210.22"/>
<polygon fill="black" stroke="black" points="431.73,-215.81 420.9,-214.1 427.55,-213.07 423.36,-210.34 423.36,-210.34 423.36,-210.34 427.55,-213.07 425.83,-206.57 431.73,-215.81 431.73,-215.81"/>
</g>
<!-- 13&#45;&gt;5 -->
<g id="edge19" class="edge">
<title>13&#45;&gt;5</title>
<path fill="none" stroke="black" d="M136.38,-106.37C139.29,-106.93 142.17,-107.48 145,-108 241.63,-125.7 353.6,-141.31 427.34,-150.92"/>
<polygon fill="black" stroke="black" points="437.49,-152.24 426.99,-155.42 432.53,-151.6 427.57,-150.95 427.57,-150.95 427.57,-150.95 432.53,-151.6 428.15,-146.49 437.49,-152.24 437.49,-152.24"/>
</g>
<!-- 13&#45;&gt;8 -->
<g id="edge20" class="edge">
<title>13&#45;&gt;8</title>
<path fill="none" stroke="black" d="M115.04,-108.13C187.03,-134.34 324.26,-184.31 401.52,-212.44"/>
<polygon fill="black" stroke="black" points="411.09,-215.92 400.16,-216.73 406.4,-214.21 401.7,-212.5 401.7,-212.5 401.7,-212.5 406.4,-214.21 403.24,-208.27 411.09,-215.92 411.09,-215.92"/>
</g>
<!-- 14 -->
<g id="node15" class="node">
<title>14</title>
<polygon fill="none" stroke="black" points="688.5,-36 585.5,-36 585.5,0 688.5,0 688.5,-36"/>
<text text-anchor="middle" x="637" y="-14.3" font-family="Times,serif" font-size="14.00">calcipy.dot_dict</text>
</g>
<!-- 16 -->
<g id="node17" class="node">
<title>16</title>
<polygon fill="none" stroke="black" points="795,-180 673,-180 673,-144 795,-144 795,-180"/>
<text text-anchor="middle" x="734" y="-158.3" font-family="Times,serif" font-size="14.00">calcipy.log_helpers</text>
</g>
<!-- 16&#45;&gt;15 -->
<g id="edge21" class="edge">
<title>16&#45;&gt;15</title>
<path fill="none" stroke="black" d="M720.9,-180.3C714.61,-188.61 706.95,-198.72 700.04,-207.86"/>
<polygon fill="black" stroke="black" points="693.95,-215.9 696.4,-205.21 696.97,-211.91 699.99,-207.92 699.99,-207.92 699.99,-207.92 696.97,-211.91 703.57,-210.64 693.95,-215.9 693.95,-215.9"/>
</g>
</g>
</svg>
